<svg xmlns="http://www.w3.org/2000/svg" xmlns:xlink="http://www.w3.org/1999/xlink" viewBox="0 0 26 26"><defs><style>.cls-1,.cls-2{fill:none;stroke:#9e9e9f;stroke-miterlimit:10;stroke-width:2px;}.cls-2{stroke-linecap:round;}.cls-3{fill:url(#名称未設定グラデーション_133);}.cls-4{fill:url(#名称未設定グラデーション_133-2);}</style><linearGradient id="名称未設定グラデーション_133" y1="13" x2="26" y2="13" gradientUnits="userSpaceOnUse"><stop offset="0" stop-color="#c0af84"/><stop offset="0.24" stop-color="#fffbd2"/><stop offset="0.44" stop-color="#c0af84"/><stop offset="0.76" stop-color="#95734e"/><stop offset="0.76" stop-color="#96744f"/><stop offset="0.78" stop-color="#a58a63"/><stop offset="0.81" stop-color="#b19b72"/><stop offset="0.84" stop-color="#baa67c"/><stop offset="0.88" stop-color="#bfad82"/><stop offset="1" stop-color="#c0af84"/></linearGradient><linearGradient id="名称未設定グラデーション_133-2" x1="0" y1="9.78" x2="26" y2="9.78" xlink:href="#名称未設定グラデーション_133"/></defs><title>アセット 103</title><g id="レイヤー_2" data-name="レイヤー 2"><g id="レイヤー_5" data-name="レイヤー 5"><circle class="cls-1" cx="13" cy="13" r="12"/><polyline class="cls-2" points="13 6.55 13 13 18.04 13"/><path class="cls-3" d="M13,26A13,13,0,1,1,26,13,13,13,0,0,1,13,26ZM13,2A11,11,0,1,0,24,13,11,11,0,0,0,13,2Z"/><polygon class="cls-4" points="19.04 14 12 14 12 5.55 14 5.55 14 12 19.04 12 19.04 14"/></g></g></svg>