<svg xmlns="http://www.w3.org/2000/svg" viewBox="0 0 46 46"><defs><style>.cls-1{fill:#fff;}</style></defs><title>アセット 105</title><g id="レイヤー_2" data-name="レイヤー 2"><g id="購入済み一覧"><path class="cls-1" d="M41.28,16.88a19.27,19.27,0,0,0-3.85-6.66l2.36-4.1L29.21,0,26.85,4.09a19.39,19.39,0,0,0-7.69,0L16.79,0,6.21,6.12l2.36,4.1a19.27,19.27,0,0,0-3.85,6.66H0V29.12H4.72a19.27,19.27,0,0,0,3.85,6.66l-2.36,4.1L16.79,46l2.36-4.09a19.39,19.39,0,0,0,7.69,0L29.21,46l10.59-6.12-2.36-4.1a19.27,19.27,0,0,0,3.85-6.66H46V16.88ZM23,33.94A10.94,10.94,0,1,1,33.93,23,10.93,10.93,0,0,1,23,33.94Z"/></g></g></svg>