<svg xmlns="http://www.w3.org/2000/svg" xmlns:xlink="http://www.w3.org/1999/xlink" viewBox="0 0 556 44"><defs><style>.cls-1{fill:#061927;}.cls-2{fill:url(#名称未設定グラデーション_133);}.cls-3{fill:url(#名称未設定グラデーション_133-8);}</style><linearGradient id="名称未設定グラデーション_133" x1="204.45" y1="21.62" x2="343.06" y2="21.62" gradientUnits="userSpaceOnUse"><stop offset="0" stop-color="#c0af84"/><stop offset="0.24" stop-color="#fffbd2"/><stop offset="0.44" stop-color="#c0af84"/><stop offset="0.76" stop-color="#95734e"/><stop offset="0.76" stop-color="#96744f"/><stop offset="0.78" stop-color="#a58a63"/><stop offset="0.81" stop-color="#b19b72"/><stop offset="0.84" stop-color="#baa67c"/><stop offset="0.88" stop-color="#bfad82"/><stop offset="1" stop-color="#c0af84"/></linearGradient><linearGradient id="名称未設定グラデーション_133-8" x1="0" y1="22" x2="556" y2="22" xlink:href="#名称未設定グラデーション_133"/></defs><title>アセット 99</title><g id="レイヤー_2" data-name="レイヤー 2"><g id="レイヤー_5" data-name="レイヤー 5"><path class="cls-1" d="M210.89,27A10.45,10.45,0,0,0,211,29h-1.34a10.71,10.71,0,0,0,.16-2.08V15.13h-3.34a11.76,11.76,0,0,0-2.08.14V14a11.47,11.47,0,0,0,2.08.14h7.72a9.82,9.82,0,0,0,2.08-.14v1.22a11.62,11.62,0,0,0-2.08-.14h-3.36Z"/><path class="cls-1" d="M238.21,14.19a10.54,10.54,0,0,0-.16,2V27a10.71,10.71,0,0,0,.16,2.08h-1.34A10.84,10.84,0,0,0,237,27V21.65h-9.54V27a10.45,10.45,0,0,0,.16,2.08h-1.34a10.71,10.71,0,0,0,.16-2.08V16.27a10.84,10.84,0,0,0-.16-2.08h1.34a10.16,10.16,0,0,0-.16,2v4.48H237V16.27a11.12,11.12,0,0,0-.16-2.08Z"/><path class="cls-1" d="M259.12,29.19A11.61,11.61,0,0,0,257,29h-5.7c-.82,0-1.36,0-2,.06a13,13,0,0,0,.16-2.26V16.27a13.34,13.34,0,0,0-.16-2.14c.68,0,1.2.06,2,.06h5.54A13.71,13.71,0,0,0,259,14v1.22a11.75,11.75,0,0,0-2.08-.14h-6.34v5.6H256a13.84,13.84,0,0,0,2.08-.14v1.22a11.86,11.86,0,0,0-2.08-.14h-5.44v6.44H257a13.71,13.71,0,0,0,2.08-.14Z"/><path class="cls-1" d="M272.12,24.27,271,27a12.08,12.08,0,0,0-.64,2h-1.5a12.7,12.7,0,0,0,1.08-2.26L274.44,16a12,12,0,0,0,.64-1.8h1.32a12.05,12.05,0,0,0,.68,1.8l4.52,10.8A15.36,15.36,0,0,0,282.68,29h-1.5a15.74,15.74,0,0,0-.64-2l-1.14-2.78Zm4.12-7.86c-.08-.18-.16-.42-.48-1.36-.2.54-.34,1-.44,1.24,0,.06,0,.1,0,.12l-2.78,6.92H279Z"/><path class="cls-1" d="M295.79,27A10.45,10.45,0,0,0,296,29h-1.34a10.71,10.71,0,0,0,.16-2.08V15.13h-3.34a11.76,11.76,0,0,0-2.08.14V14a11.47,11.47,0,0,0,2.08.14h7.72a9.82,9.82,0,0,0,2.08-.14v1.22a11.62,11.62,0,0,0-2.08-.14h-3.36Z"/><path class="cls-1" d="M321,29.19a11.61,11.61,0,0,0-2.08-.14h-5.7c-.82,0-1.36,0-2,.06a13,13,0,0,0,.16-2.26V16.27a13.34,13.34,0,0,0-.16-2.14c.68,0,1.2.06,2,.06h5.54a13.71,13.71,0,0,0,2.08-.14v1.22a11.75,11.75,0,0,0-2.08-.14h-6.34v5.6h5.44a13.84,13.84,0,0,0,2.08-.14v1.22a11.86,11.86,0,0,0-2.08-.14h-5.44v6.44h6.5A13.71,13.71,0,0,0,321,28Z"/><path class="cls-1" d="M341.5,29a13,13,0,0,0-1.24-3.52c-1.28-2.8-2-3.54-3.64-3.54h-4.06v5a10.45,10.45,0,0,0,.16,2.08h-1.34a10.71,10.71,0,0,0,.16-2.08V16.27a13.34,13.34,0,0,0-.16-2.14c.68,0,1.2.06,2,.06h4.22c2.86,0,4.36,1.28,4.36,3.7a3.6,3.6,0,0,1-1.36,3,4.57,4.57,0,0,1-2.06.82c.78.24,1.3.8,2,2.2.62,1.22,1.08,2.2,1.58,3.32a14.5,14.5,0,0,0,.9,1.8Zm-3.86-8A3,3,0,0,0,340.92,18c0-1.84-1.12-2.84-3.14-2.84h-5.22V21Z"/><path class="cls-2" d="M210.89,27A10.45,10.45,0,0,0,211,29h-1.34a10.71,10.71,0,0,0,.16-2.08V15.13h-3.34a11.76,11.76,0,0,0-2.08.14V14a11.47,11.47,0,0,0,2.08.14h7.72a9.82,9.82,0,0,0,2.08-.14v1.22a11.62,11.62,0,0,0-2.08-.14h-3.36Z"/><path class="cls-2" d="M238.21,14.19a10.54,10.54,0,0,0-.16,2V27a10.71,10.71,0,0,0,.16,2.08h-1.34A10.84,10.84,0,0,0,237,27V21.65h-9.54V27a10.45,10.45,0,0,0,.16,2.08h-1.34a10.71,10.71,0,0,0,.16-2.08V16.27a10.84,10.84,0,0,0-.16-2.08h1.34a10.16,10.16,0,0,0-.16,2v4.48H237V16.27a11.12,11.12,0,0,0-.16-2.08Z"/><path class="cls-2" d="M259.12,29.19A11.61,11.61,0,0,0,257,29h-5.7c-.82,0-1.36,0-2,.06a13,13,0,0,0,.16-2.26V16.27a13.34,13.34,0,0,0-.16-2.14c.68,0,1.2.06,2,.06h5.54A13.71,13.71,0,0,0,259,14v1.22a11.75,11.75,0,0,0-2.08-.14h-6.34v5.6H256a13.84,13.84,0,0,0,2.08-.14v1.22a11.86,11.86,0,0,0-2.08-.14h-5.44v6.44H257a13.71,13.71,0,0,0,2.08-.14Z"/><path class="cls-2" d="M272.12,24.27,271,27a12.08,12.08,0,0,0-.64,2h-1.5a12.7,12.7,0,0,0,1.08-2.26L274.44,16a12,12,0,0,0,.64-1.8h1.32a12.05,12.05,0,0,0,.68,1.8l4.52,10.8A15.36,15.36,0,0,0,282.68,29h-1.5a15.74,15.74,0,0,0-.64-2l-1.14-2.78Zm4.12-7.86c-.08-.18-.16-.42-.48-1.36-.2.54-.34,1-.44,1.24,0,.06,0,.1,0,.12l-2.78,6.92H279Z"/><path class="cls-2" d="M295.79,27A10.45,10.45,0,0,0,296,29h-1.34a10.71,10.71,0,0,0,.16-2.08V15.13h-3.34a11.76,11.76,0,0,0-2.08.14V14a11.47,11.47,0,0,0,2.08.14h7.72a9.82,9.82,0,0,0,2.08-.14v1.22a11.62,11.62,0,0,0-2.08-.14h-3.36Z"/><path class="cls-2" d="M321,29.19a11.61,11.61,0,0,0-2.08-.14h-5.7c-.82,0-1.36,0-2,.06a13,13,0,0,0,.16-2.26V16.27a13.34,13.34,0,0,0-.16-2.14c.68,0,1.2.06,2,.06h5.54a13.71,13.71,0,0,0,2.08-.14v1.22a11.75,11.75,0,0,0-2.08-.14h-6.34v5.6h5.44a13.84,13.84,0,0,0,2.08-.14v1.22a11.86,11.86,0,0,0-2.08-.14h-5.44v6.44h6.5A13.71,13.71,0,0,0,321,28Z"/><path class="cls-2" d="M341.5,29a13,13,0,0,0-1.24-3.52c-1.28-2.8-2-3.54-3.64-3.54h-4.06v5a10.45,10.45,0,0,0,.16,2.08h-1.34a10.71,10.71,0,0,0,.16-2.08V16.27a13.34,13.34,0,0,0-.16-2.14c.68,0,1.2.06,2,.06h4.22c2.86,0,4.36,1.28,4.36,3.7a3.6,3.6,0,0,1-1.36,3,4.57,4.57,0,0,1-2.06.82c.78.24,1.3.8,2,2.2.62,1.22,1.08,2.2,1.58,3.32a14.5,14.5,0,0,0,.9,1.8Zm-3.86-8A3,3,0,0,0,340.92,18c0-1.84-1.12-2.84-3.14-2.84h-5.22V21Z"/><path class="cls-3" d="M556,44H0V0H556ZM2,42H554V2H2Z"/></g></g></svg>