<svg xmlns="http://www.w3.org/2000/svg" xmlns:xlink="http://www.w3.org/1999/xlink" viewBox="0 0 314.46 51.57"><defs><style>.cls-1{fill:#f4bd8b;}.cls-2{fill:#fff;}.cls-3{fill:url(#名称未設定グラデーション_133);}</style><linearGradient id="名称未設定グラデーション_133" y1="25.79" x2="314.46" y2="25.79" gradientUnits="userSpaceOnUse"><stop offset="0" stop-color="#c0af84"/><stop offset="0.24" stop-color="#fffbd2"/><stop offset="0.44" stop-color="#c0af84"/><stop offset="0.76" stop-color="#95734e"/><stop offset="0.76" stop-color="#96744f"/><stop offset="0.78" stop-color="#a58a63"/><stop offset="0.81" stop-color="#b19b72"/><stop offset="0.84" stop-color="#baa67c"/><stop offset="0.88" stop-color="#bfad82"/><stop offset="1" stop-color="#c0af84"/></linearGradient></defs><title>アセット 96</title><g id="レイヤー_2" data-name="レイヤー 2"><g id="レイヤー_5" data-name="レイヤー 5"><path class="cls-1" d="M17.19,48.6A2.06,2.06,0,0,0,18.9,48a2.52,2.52,0,0,0,.45-1.58V8.28H4.23a4.46,4.46,0,0,0-2.43.5,2.08,2.08,0,0,0-.72,1.84H0V0H1.08q0,2.34,3.15,2.34H42q3.15,0,3.15-2.34h1.08V10.62H45.18a2.09,2.09,0,0,0-.72-1.84A4.47,4.47,0,0,0,42,8.28H26.91V46.44A2.51,2.51,0,0,0,27.36,48a2.05,2.05,0,0,0,1.71.58v1.08H17.19Z"/><path class="cls-1" d="M67.77,48.6q1.44,0,1.84-.5a3.45,3.45,0,0,0,.41-2V13.68a3.46,3.46,0,0,0-.41-2,2.43,2.43,0,0,0-1.84-.5V10.08H77.85v1.08q-1.44,0-1.85.5a3.46,3.46,0,0,0-.4,2v32.4a3.45,3.45,0,0,0,.4,2q.41.5,1.85.5v1.08H67.77Z"/><path class="cls-1" d="M134.73,21.24a3,3,0,0,0,.18-.72v-.81q0-.54-1.17-1.4a17.05,17.05,0,0,0-3.11-1.71,26.26,26.26,0,0,0-4.32-1.44,20.19,20.19,0,0,0-4.82-.58,18.65,18.65,0,0,0-6.93,1.22,15.58,15.58,0,0,0-5.22,3.33A14.26,14.26,0,0,0,106.06,24,15.72,15.72,0,0,0,104.94,30a15,15,0,0,0,1.13,5.85,12.93,12.93,0,0,0,3.24,4.63,15.82,15.82,0,0,0,5,3.06,17.41,17.41,0,0,0,6.39,1.13,24.71,24.71,0,0,0,6.25-.72,20.52,20.52,0,0,0,4.63-1.76,11.9,11.9,0,0,0,2.88-2.07q1-1,1-1.58a4.4,4.4,0,0,0-.36-1.8l.9-.54,6.3,8.28-1,.72a5.14,5.14,0,0,0-1.08-.67,1.82,1.82,0,0,0-.63-.14,4.56,4.56,0,0,0-2.21.9,34.1,34.1,0,0,1-3.64,2A28.57,28.57,0,0,1,121,50a29.46,29.46,0,0,1-8.59-1.21,18.94,18.94,0,0,1-7-3.78,18.11,18.11,0,0,1-4.68-6.34A20.75,20.75,0,0,1,99,30a20.3,20.3,0,0,1,1.75-8.64,18.54,18.54,0,0,1,4.82-6.39,21.77,21.77,0,0,1,7.11-4,26.37,26.37,0,0,1,8.64-1.4,37.43,37.43,0,0,1,6.39.45,31.18,31.18,0,0,1,5.22,1.44q1.8.63,3,1.17a4.76,4.76,0,0,0,1.8.54,1.93,1.93,0,0,0,1.44-1l1.08.36-4.41,9.27Z"/><path class="cls-1" d="M168.57,46.08a3.44,3.44,0,0,0,.41,2q.4.5,1.84.5v1.08H160.74V48.6c1,0,1.58-.16,1.84-.5a3.44,3.44,0,0,0,.41-2V13.68a3.45,3.45,0,0,0-.41-2c-.27-.33-.89-.5-1.84-.5V10.08h10.08v1.08q-1.44,0-1.84.5a3.45,3.45,0,0,0-.41,2V27.36l18.72-14a8.55,8.55,0,0,0,.86-.58.94.94,0,0,0,.4-.77q0-.9-2.25-.9V10.08H200v1.08a4.89,4.89,0,0,0-3.15,1.17l-15,11.34,16.56,22.86a7.9,7.9,0,0,0,1.39,1.53,3.37,3.37,0,0,0,2.12.54v1.08H190.44V48.6a5.67,5.67,0,0,0,1.89-.18.58.58,0,0,0,.36-.54,4.45,4.45,0,0,0-1.08-2.07l-14-19.17-9,7Z"/><path class="cls-1" d="M220,13.68a3.46,3.46,0,0,0-.41-2,2.12,2.12,0,0,0-1.67-.5V10.08h36.27a2.43,2.43,0,0,0,1.8-.5,2.46,2.46,0,0,0,.45-1.66h1.08v9.36H256.5a2.47,2.47,0,0,0-.45-1.67,2.44,2.44,0,0,0-1.8-.5H226v11.7h19.89a2.43,2.43,0,0,0,1.8-.5,2.46,2.46,0,0,0,.45-1.67h1.08V34h-1.08a2.46,2.46,0,0,0-.45-1.67,2.44,2.44,0,0,0-1.8-.49H226V44.64h29.25a2.43,2.43,0,0,0,1.8-.5,2.46,2.46,0,0,0,.45-1.67h1.08v9.09h-1.08A1.93,1.93,0,0,0,257,50a3.1,3.1,0,0,0-1.8-.36H218V48.6a2.11,2.11,0,0,0,1.67-.5,3.45,3.45,0,0,0,.41-2Z"/><path class="cls-1" d="M313.38,17.28a2.46,2.46,0,0,0-.45-1.67,2.44,2.44,0,0,0-1.8-.5h-14v31a3.45,3.45,0,0,0,.41,2q.4.5,1.84.5v1.08H289V48.6c1,0,1.58-.16,1.84-.5a3.45,3.45,0,0,0,.41-2v-31h-14a2.44,2.44,0,0,0-1.8.5,2.46,2.46,0,0,0-.45,1.67H274V7.92H275a2.45,2.45,0,0,0,.45,1.66,2.43,2.43,0,0,0,1.8.5h33.84a2.43,2.43,0,0,0,1.8-.5,2.45,2.45,0,0,0,.45-1.66h1.08v9.36Z"/><path class="cls-2" d="M17.19,48.6A2.06,2.06,0,0,0,18.9,48a2.52,2.52,0,0,0,.45-1.58V8.28H4.23a4.46,4.46,0,0,0-2.43.5,2.08,2.08,0,0,0-.72,1.84H0V0H1.08q0,2.34,3.15,2.34H42q3.15,0,3.15-2.34h1.08V10.62H45.18a2.09,2.09,0,0,0-.72-1.84A4.47,4.47,0,0,0,42,8.28H26.91V46.44A2.51,2.51,0,0,0,27.36,48a2.05,2.05,0,0,0,1.71.58v1.08H17.19Z"/><path class="cls-2" d="M67.77,48.6q1.44,0,1.84-.5a3.45,3.45,0,0,0,.41-2V13.68a3.46,3.46,0,0,0-.41-2,2.43,2.43,0,0,0-1.84-.5V10.08H77.85v1.08q-1.44,0-1.85.5a3.46,3.46,0,0,0-.4,2v32.4a3.45,3.45,0,0,0,.4,2q.41.5,1.85.5v1.08H67.77Z"/><path class="cls-2" d="M134.73,21.24a3,3,0,0,0,.18-.72v-.81q0-.54-1.17-1.4a17.05,17.05,0,0,0-3.11-1.71,26.26,26.26,0,0,0-4.32-1.44,20.19,20.19,0,0,0-4.82-.58,18.65,18.65,0,0,0-6.93,1.22,15.58,15.58,0,0,0-5.22,3.33A14.26,14.26,0,0,0,106.06,24,15.72,15.72,0,0,0,104.94,30a15,15,0,0,0,1.13,5.85,12.93,12.93,0,0,0,3.24,4.63,15.82,15.82,0,0,0,5,3.06,17.41,17.41,0,0,0,6.39,1.13,24.71,24.71,0,0,0,6.25-.72,20.52,20.52,0,0,0,4.63-1.76,11.9,11.9,0,0,0,2.88-2.07q1-1,1-1.58a4.4,4.4,0,0,0-.36-1.8l.9-.54,6.3,8.28-1,.72a5.14,5.14,0,0,0-1.08-.67,1.82,1.82,0,0,0-.63-.14,4.56,4.56,0,0,0-2.21.9,34.1,34.1,0,0,1-3.64,2A28.57,28.57,0,0,1,121,50a29.46,29.46,0,0,1-8.59-1.21,18.94,18.94,0,0,1-7-3.78,18.11,18.11,0,0,1-4.68-6.34A20.75,20.75,0,0,1,99,30a20.3,20.3,0,0,1,1.75-8.64,18.54,18.54,0,0,1,4.82-6.39,21.77,21.77,0,0,1,7.11-4,26.37,26.37,0,0,1,8.64-1.4,37.43,37.43,0,0,1,6.39.45,31.18,31.18,0,0,1,5.22,1.44q1.8.63,3,1.17a4.76,4.76,0,0,0,1.8.54,1.93,1.93,0,0,0,1.44-1l1.08.36-4.41,9.27Z"/><path class="cls-2" d="M168.57,46.08a3.44,3.44,0,0,0,.41,2q.4.5,1.84.5v1.08H160.74V48.6c1,0,1.58-.16,1.84-.5a3.44,3.44,0,0,0,.41-2V13.68a3.45,3.45,0,0,0-.41-2c-.27-.33-.89-.5-1.84-.5V10.08h10.08v1.08q-1.44,0-1.84.5a3.45,3.45,0,0,0-.41,2V27.36l18.72-14a8.55,8.55,0,0,0,.86-.58.94.94,0,0,0,.4-.77q0-.9-2.25-.9V10.08H200v1.08a4.89,4.89,0,0,0-3.15,1.17l-15,11.34,16.56,22.86a7.9,7.9,0,0,0,1.39,1.53,3.37,3.37,0,0,0,2.12.54v1.08H190.44V48.6a5.67,5.67,0,0,0,1.89-.18.58.58,0,0,0,.36-.54,4.45,4.45,0,0,0-1.08-2.07l-14-19.17-9,7Z"/><path class="cls-2" d="M220,13.68a3.46,3.46,0,0,0-.41-2,2.12,2.12,0,0,0-1.67-.5V10.08h36.27a2.43,2.43,0,0,0,1.8-.5,2.46,2.46,0,0,0,.45-1.66h1.08v9.36H256.5a2.47,2.47,0,0,0-.45-1.67,2.44,2.44,0,0,0-1.8-.5H226v11.7h19.89a2.43,2.43,0,0,0,1.8-.5,2.46,2.46,0,0,0,.45-1.67h1.08V34h-1.08a2.46,2.46,0,0,0-.45-1.67,2.44,2.44,0,0,0-1.8-.49H226V44.64h29.25a2.43,2.43,0,0,0,1.8-.5,2.46,2.46,0,0,0,.45-1.67h1.08v9.09h-1.08A1.93,1.93,0,0,0,257,50a3.1,3.1,0,0,0-1.8-.36H218V48.6a2.11,2.11,0,0,0,1.67-.5,3.45,3.45,0,0,0,.41-2Z"/><path class="cls-2" d="M313.38,17.28a2.46,2.46,0,0,0-.45-1.67,2.44,2.44,0,0,0-1.8-.5h-14v31a3.45,3.45,0,0,0,.41,2q.4.5,1.84.5v1.08H289V48.6c1,0,1.58-.16,1.84-.5a3.45,3.45,0,0,0,.41-2v-31h-14a2.44,2.44,0,0,0-1.8.5,2.46,2.46,0,0,0-.45,1.67H274V7.92H275a2.45,2.45,0,0,0,.45,1.66,2.43,2.43,0,0,0,1.8.5h33.84a2.43,2.43,0,0,0,1.8-.5,2.45,2.45,0,0,0,.45-1.66h1.08v9.36Z"/><path class="cls-3" d="M17.19,48.6A2.06,2.06,0,0,0,18.9,48a2.52,2.52,0,0,0,.45-1.58V8.28H4.23a4.46,4.46,0,0,0-2.43.5,2.08,2.08,0,0,0-.72,1.84H0V0H1.08q0,2.34,3.15,2.34H42q3.15,0,3.15-2.34h1.08V10.62H45.18a2.09,2.09,0,0,0-.72-1.84A4.47,4.47,0,0,0,42,8.28H26.91V46.44A2.51,2.51,0,0,0,27.36,48a2.05,2.05,0,0,0,1.71.58v1.08H17.19Z"/><path class="cls-3" d="M67.77,48.6q1.44,0,1.84-.5a3.45,3.45,0,0,0,.41-2V13.68a3.46,3.46,0,0,0-.41-2,2.43,2.43,0,0,0-1.84-.5V10.08H77.85v1.08q-1.44,0-1.85.5a3.46,3.46,0,0,0-.4,2v32.4a3.45,3.45,0,0,0,.4,2q.41.5,1.85.5v1.08H67.77Z"/><path class="cls-3" d="M134.73,21.24a3,3,0,0,0,.18-.72v-.81q0-.54-1.17-1.4a17.05,17.05,0,0,0-3.11-1.71,26.26,26.26,0,0,0-4.32-1.44,20.19,20.19,0,0,0-4.82-.58,18.65,18.65,0,0,0-6.93,1.22,15.58,15.58,0,0,0-5.22,3.33A14.26,14.26,0,0,0,106.06,24,15.72,15.72,0,0,0,104.94,30a15,15,0,0,0,1.13,5.85,12.93,12.93,0,0,0,3.24,4.63,15.82,15.82,0,0,0,5,3.06,17.41,17.41,0,0,0,6.39,1.13,24.71,24.71,0,0,0,6.25-.72,20.52,20.52,0,0,0,4.63-1.76,11.9,11.9,0,0,0,2.88-2.07q1-1,1-1.58a4.4,4.4,0,0,0-.36-1.8l.9-.54,6.3,8.28-1,.72a5.14,5.14,0,0,0-1.08-.67,1.82,1.82,0,0,0-.63-.14,4.56,4.56,0,0,0-2.21.9,34.1,34.1,0,0,1-3.64,2A28.57,28.57,0,0,1,121,50a29.46,29.46,0,0,1-8.59-1.21,18.94,18.94,0,0,1-7-3.78,18.11,18.11,0,0,1-4.68-6.34A20.75,20.75,0,0,1,99,30a20.3,20.3,0,0,1,1.75-8.64,18.54,18.54,0,0,1,4.82-6.39,21.77,21.77,0,0,1,7.11-4,26.37,26.37,0,0,1,8.64-1.4,37.43,37.43,0,0,1,6.39.45,31.18,31.18,0,0,1,5.22,1.44q1.8.63,3,1.17a4.76,4.76,0,0,0,1.8.54,1.93,1.93,0,0,0,1.44-1l1.08.36-4.41,9.27Z"/><path class="cls-3" d="M168.57,46.08a3.44,3.44,0,0,0,.41,2q.4.5,1.84.5v1.08H160.74V48.6c1,0,1.58-.16,1.84-.5a3.44,3.44,0,0,0,.41-2V13.68a3.45,3.45,0,0,0-.41-2c-.27-.33-.89-.5-1.84-.5V10.08h10.08v1.08q-1.44,0-1.84.5a3.45,3.45,0,0,0-.41,2V27.36l18.72-14a8.55,8.55,0,0,0,.86-.58.94.94,0,0,0,.4-.77q0-.9-2.25-.9V10.08H200v1.08a4.89,4.89,0,0,0-3.15,1.17l-15,11.34,16.56,22.86a7.9,7.9,0,0,0,1.39,1.53,3.37,3.37,0,0,0,2.12.54v1.08H190.44V48.6a5.67,5.67,0,0,0,1.89-.18.58.58,0,0,0,.36-.54,4.45,4.45,0,0,0-1.08-2.07l-14-19.17-9,7Z"/><path class="cls-3" d="M220,13.68a3.46,3.46,0,0,0-.41-2,2.12,2.12,0,0,0-1.67-.5V10.08h36.27a2.43,2.43,0,0,0,1.8-.5,2.46,2.46,0,0,0,.45-1.66h1.08v9.36H256.5a2.47,2.47,0,0,0-.45-1.67,2.44,2.44,0,0,0-1.8-.5H226v11.7h19.89a2.43,2.43,0,0,0,1.8-.5,2.46,2.46,0,0,0,.45-1.67h1.08V34h-1.08a2.46,2.46,0,0,0-.45-1.67,2.44,2.44,0,0,0-1.8-.49H226V44.64h29.25a2.43,2.43,0,0,0,1.8-.5,2.46,2.46,0,0,0,.45-1.67h1.08v9.09h-1.08A1.93,1.93,0,0,0,257,50a3.1,3.1,0,0,0-1.8-.36H218V48.6a2.11,2.11,0,0,0,1.67-.5,3.45,3.45,0,0,0,.41-2Z"/><path class="cls-3" d="M313.38,17.28a2.46,2.46,0,0,0-.45-1.67,2.44,2.44,0,0,0-1.8-.5h-14v31a3.45,3.45,0,0,0,.41,2q.4.5,1.84.5v1.08H289V48.6c1,0,1.58-.16,1.84-.5a3.45,3.45,0,0,0,.41-2v-31h-14a2.44,2.44,0,0,0-1.8.5,2.46,2.46,0,0,0-.45,1.67H274V7.92H275a2.45,2.45,0,0,0,.45,1.66,2.43,2.43,0,0,0,1.8.5h33.84a2.43,2.43,0,0,0,1.8-.5,2.45,2.45,0,0,0,.45-1.66h1.08v9.36Z"/></g></g></svg>