<svg xmlns="http://www.w3.org/2000/svg" xmlns:xlink="http://www.w3.org/1999/xlink" viewBox="0 0 62 62"><defs><style>.cls-1{fill:#fff;}.cls-2{fill:url(#名称未設定グラデーション_133);}.cls-3{fill:none;stroke:#fff;stroke-miterlimit:10;stroke-width:2px;}.cls-4{fill:url(#名称未設定グラデーション_133-6);}</style><linearGradient id="名称未設定グラデーション_133" x1="9.34" y1="30.48" x2="51.4" y2="30.48" gradientUnits="userSpaceOnUse"><stop offset="0" stop-color="#c0af84"/><stop offset="0.24" stop-color="#fffbd2"/><stop offset="0.44" stop-color="#c0af84"/><stop offset="0.76" stop-color="#95734e"/><stop offset="0.76" stop-color="#96744f"/><stop offset="0.78" stop-color="#a58a63"/><stop offset="0.81" stop-color="#b19b72"/><stop offset="0.84" stop-color="#baa67c"/><stop offset="0.88" stop-color="#bfad82"/><stop offset="1" stop-color="#c0af84"/></linearGradient><linearGradient id="名称未設定グラデーション_133-6" x1="0" y1="31" x2="62" y2="31" xlink:href="#名称未設定グラデーション_133"/></defs><title>アセット 101</title><g id="レイヤー_2" data-name="レイヤー 2"><g id="レイヤー_5" data-name="レイヤー 5"><path class="cls-1" d="M16.11,28.52a2.81,2.81,0,0,0-.56-1.06,2.62,2.62,0,0,0-2.07-.86c-1.94,0-3.17,1.49-3.17,3.87s1.24,3.89,3.17,3.89a2.73,2.73,0,0,0,2.24-1,2.67,2.67,0,0,0,.48-1.2l1,.24a3.89,3.89,0,0,1-.65,1.43,3.72,3.72,0,0,1-3.11,1.39,3.82,3.82,0,0,1-2.81-1.06,5.1,5.1,0,0,1-1.29-3.65,5.12,5.12,0,0,1,1.37-3.73,3.79,3.79,0,0,1,2.75-1,3.54,3.54,0,0,1,3.62,2.48Z"/><path class="cls-1" d="M20.45,35c-.55,0-.89,0-1.31,0a8.51,8.51,0,0,0,.1-1.43V27.34a7.83,7.83,0,0,0-.1-1.42h1.13a7.66,7.66,0,0,0-.1,1.42v6.85H24a9.44,9.44,0,0,0,1.39-.08v1A8.25,8.25,0,0,0,24,35Z"/><path class="cls-1" d="M34.66,30.48c0,2.89-1.62,4.74-4.15,4.74s-4.14-1.85-4.14-4.74,1.63-4.74,4.15-4.74S34.66,27.59,34.66,30.48Zm-2.05,3.07a4.29,4.29,0,0,0,1.07-3.07,4.22,4.22,0,0,0-1.06-3.07,2.93,2.93,0,0,0-2.1-.83c-1.92,0-3.18,1.54-3.18,3.89s1.27,3.9,3.19,3.9A2.84,2.84,0,0,0,32.61,33.55Z"/><path class="cls-1" d="M41.94,28.29a2,2,0,0,0-.42-1,2.23,2.23,0,0,0-1.77-.7c-1.24,0-2.1.66-2.1,1.63a1.41,1.41,0,0,0,1,1.36A8.81,8.81,0,0,0,40.4,30c1.92.41,2.69,1.14,2.69,2.53,0,1.69-1.16,2.65-3.23,2.65A3.42,3.42,0,0,1,37,34.06a3.09,3.09,0,0,1-.56-1.58l1-.13a1.87,1.87,0,0,0,.37,1.19,2.43,2.43,0,0,0,2,.83c1.43,0,2.29-.67,2.29-1.79a1.37,1.37,0,0,0-.7-1.28,5.9,5.9,0,0,0-2-.59,5.41,5.41,0,0,1-1.63-.55,2,2,0,0,1-1.12-1.89c0-1.51,1.21-2.48,3.07-2.48a3.16,3.16,0,0,1,2.65,1.1,2.76,2.76,0,0,1,.53,1.27Z"/><path class="cls-1" d="M51.4,35.13A7.91,7.91,0,0,0,50.06,35H46.54c-.58,0-.91,0-1.32,0a8.33,8.33,0,0,0,.1-1.43V27.26a8.93,8.93,0,0,0-.1-1.37c.42,0,.74,0,1.32,0H50a8.86,8.86,0,0,0,1.34-.08v1A8.47,8.47,0,0,0,50,26.77H46.27v3.07h3.15a9.45,9.45,0,0,0,1.34-.08v1a8.08,8.08,0,0,0-1.34-.08H46.27V34.2h3.8a8.82,8.82,0,0,0,1.33-.08Z"/><path class="cls-2" d="M16.11,28.52a2.81,2.81,0,0,0-.56-1.06,2.62,2.62,0,0,0-2.07-.86c-1.94,0-3.17,1.49-3.17,3.87s1.24,3.89,3.17,3.89a2.73,2.73,0,0,0,2.24-1,2.67,2.67,0,0,0,.48-1.2l1,.24a3.89,3.89,0,0,1-.65,1.43,3.72,3.72,0,0,1-3.11,1.39,3.82,3.82,0,0,1-2.81-1.06,5.1,5.1,0,0,1-1.29-3.65,5.12,5.12,0,0,1,1.37-3.73,3.79,3.79,0,0,1,2.75-1,3.54,3.54,0,0,1,3.62,2.48Z"/><path class="cls-2" d="M20.45,35c-.55,0-.89,0-1.31,0a8.51,8.51,0,0,0,.1-1.43V27.34a7.83,7.83,0,0,0-.1-1.42h1.13a7.66,7.66,0,0,0-.1,1.42v6.85H24a9.44,9.44,0,0,0,1.39-.08v1A8.25,8.25,0,0,0,24,35Z"/><path class="cls-2" d="M34.66,30.48c0,2.89-1.62,4.74-4.15,4.74s-4.14-1.85-4.14-4.74,1.63-4.74,4.15-4.74S34.66,27.59,34.66,30.48Zm-2.05,3.07a4.29,4.29,0,0,0,1.07-3.07,4.22,4.22,0,0,0-1.06-3.07,2.93,2.93,0,0,0-2.1-.83c-1.92,0-3.18,1.54-3.18,3.89s1.27,3.9,3.19,3.9A2.84,2.84,0,0,0,32.61,33.55Z"/><path class="cls-2" d="M41.94,28.29a2,2,0,0,0-.42-1,2.23,2.23,0,0,0-1.77-.7c-1.24,0-2.1.66-2.1,1.63a1.41,1.41,0,0,0,1,1.36A8.81,8.81,0,0,0,40.4,30c1.92.41,2.69,1.14,2.69,2.53,0,1.69-1.16,2.65-3.23,2.65A3.42,3.42,0,0,1,37,34.06a3.09,3.09,0,0,1-.56-1.58l1-.13a1.87,1.87,0,0,0,.37,1.19,2.43,2.43,0,0,0,2,.83c1.43,0,2.29-.67,2.29-1.79a1.37,1.37,0,0,0-.7-1.28,5.9,5.9,0,0,0-2-.59,5.41,5.41,0,0,1-1.63-.55,2,2,0,0,1-1.12-1.89c0-1.51,1.21-2.48,3.07-2.48a3.16,3.16,0,0,1,2.65,1.1,2.76,2.76,0,0,1,.53,1.27Z"/><path class="cls-2" d="M51.4,35.13A7.91,7.91,0,0,0,50.06,35H46.54c-.58,0-.91,0-1.32,0a8.33,8.33,0,0,0,.1-1.43V27.26a8.93,8.93,0,0,0-.1-1.37c.42,0,.74,0,1.32,0H50a8.86,8.86,0,0,0,1.34-.08v1A8.47,8.47,0,0,0,50,26.77H46.27v3.07h3.15a9.45,9.45,0,0,0,1.34-.08v1a8.08,8.08,0,0,0-1.34-.08H46.27V34.2h3.8a8.82,8.82,0,0,0,1.33-.08Z"/><rect class="cls-3" x="1" y="1" width="60" height="60"/><path class="cls-4" d="M62,62H0V0H62ZM2,60H60V2H2Z"/></g></g></svg>