<svg xmlns="http://www.w3.org/2000/svg" xmlns:xlink="http://www.w3.org/1999/xlink" viewBox="0 0 22.02 35.21"><defs><style>.cls-1{fill:none;stroke:#fff;stroke-linejoin:round;stroke-width:2px;}.cls-2{fill:url(#名称未設定グラデーション_133);}.cls-3{fill:url(#名称未設定グラデーション_133-2);}</style><linearGradient id="名称未設定グラデーション_133" y1="11.01" x2="22.02" y2="11.01" gradientUnits="userSpaceOnUse"><stop offset="0" stop-color="#c0af84"/><stop offset="0.24" stop-color="#fffbd2"/><stop offset="0.44" stop-color="#c0af84"/><stop offset="0.76" stop-color="#95734e"/><stop offset="0.76" stop-color="#96744f"/><stop offset="0.78" stop-color="#a58a63"/><stop offset="0.81" stop-color="#b19b72"/><stop offset="0.84" stop-color="#baa67c"/><stop offset="0.88" stop-color="#bfad82"/><stop offset="1" stop-color="#c0af84"/></linearGradient><linearGradient id="名称未設定グラデーション_133-2" x1="0" y1="17.6" x2="22.02" y2="17.6" xlink:href="#名称未設定グラデーション_133"/></defs><title>アセット 104</title><g id="レイヤー_2" data-name="レイヤー 2"><g id="レイヤー_5" data-name="レイヤー 5"><circle class="cls-1" cx="11.01" cy="11.01" r="4.34"/><path class="cls-1" d="M21,11a10,10,0,1,0-19,4.48h0L11,33s8.65-16.74,8.83-17.33h0A10,10,0,0,0,21,11Z"/><path class="cls-2" d="M11,16.35A5.34,5.34,0,1,1,16.35,11,5.35,5.35,0,0,1,11,16.35Zm0-8.69A3.34,3.34,0,1,0,14.35,11,3.35,3.35,0,0,0,11,7.67Z"/><path class="cls-3" d="M11,35.21.42,14.49H.57A10.84,10.84,0,0,1,0,11a11,11,0,1,1,20.78,5.07c-.53,1.24-5.73,11.34-8.86,17.39ZM3.5,16.12,11,30.83c2.62-5.08,5.86-11.4,7.23-14.14H18.2L19,15.22A8.91,8.91,0,0,0,20,11,9,9,0,1,0,2,11a8.91,8.91,0,0,0,1,4Z"/></g></g></svg>