<svg xmlns="http://www.w3.org/2000/svg" xmlns:xlink="http://www.w3.org/1999/xlink" viewBox="0 0 556 44"><defs><style>.cls-1{fill:#061927;}.cls-2{fill:url(#名称未設定グラデーション_133);}.cls-3{fill:url(#名称未設定グラデーション_133-12);}</style><linearGradient id="名称未設定グラデーション_133" x1="149.26" y1="21.62" x2="399.28" y2="21.62" gradientUnits="userSpaceOnUse"><stop offset="0" stop-color="#c0af84"/><stop offset="0.24" stop-color="#fffbd2"/><stop offset="0.44" stop-color="#c0af84"/><stop offset="0.76" stop-color="#95734e"/><stop offset="0.76" stop-color="#96744f"/><stop offset="0.78" stop-color="#a58a63"/><stop offset="0.81" stop-color="#b19b72"/><stop offset="0.84" stop-color="#baa67c"/><stop offset="0.88" stop-color="#bfad82"/><stop offset="1" stop-color="#c0af84"/></linearGradient><linearGradient id="名称未設定グラデーション_133-12" x1="0" y1="22" x2="556" y2="22" xlink:href="#名称未設定グラデーション_133"/></defs><title>アセット 98</title><g id="レイヤー_2" data-name="レイヤー 2"><g id="レイヤー_5" data-name="レイヤー 5"><path class="cls-1" d="M149.42,16.27a13.33,13.33,0,0,0-.16-2.14c.68,0,1.2.06,2,.06h3.26a6.61,6.61,0,0,1,4.8,1.78,7.61,7.61,0,0,1,1.92,5.54c0,4.64-2.58,7.54-6.72,7.54h-3.26c-.82,0-1.36,0-2,.06a13,13,0,0,0,.16-2.26Zm5.14,11.84c3.48,0,5.64-2.52,5.64-6.6s-2-6.38-5.52-6.38h-4.24v13Z"/><path class="cls-1" d="M173.13,24.27,172,27a12.08,12.08,0,0,0-.64,2h-1.5a12.73,12.73,0,0,0,1.08-2.26L175.45,16a12,12,0,0,0,.64-1.8h1.32a12,12,0,0,0,.68,1.8l4.52,10.8A15.4,15.4,0,0,0,183.69,29h-1.5a15.71,15.71,0,0,0-.64-2l-1.14-2.78Zm4.12-7.86c-.08-.18-.16-.42-.48-1.36-.2.54-.34,1-.44,1.24,0,.06,0,.1,0,.12l-2.78,6.92H180Z"/><path class="cls-1" d="M196.81,27A10.45,10.45,0,0,0,197,29h-1.34a10.71,10.71,0,0,0,.16-2.08V15.13h-3.34a11.82,11.82,0,0,0-2.08.14V14a11.52,11.52,0,0,0,2.08.14h7.72a9.82,9.82,0,0,0,2.08-.14v1.22a11.67,11.67,0,0,0-2.08-.14h-3.36Z"/><path class="cls-1" d="M222,29.19A11.66,11.66,0,0,0,220,29h-5.7c-.82,0-1.36,0-2,.06a13,13,0,0,0,.16-2.26V16.27a13.33,13.33,0,0,0-.16-2.14c.68,0,1.2.06,2,.06h5.54a13.77,13.77,0,0,0,2.08-.14v1.22a11.81,11.81,0,0,0-2.08-.14h-6.34v5.6h5.44a13.77,13.77,0,0,0,2.08-.14v1.22a11.81,11.81,0,0,0-2.08-.14h-5.44v6.44H220A13.77,13.77,0,0,0,222,28Z"/><path class="cls-1" d="M249.33,24.27,248.19,27a12.08,12.08,0,0,0-.64,2H246a12.73,12.73,0,0,0,1.08-2.26L251.65,16a12,12,0,0,0,.64-1.8h1.32a12,12,0,0,0,.68,1.8l4.52,10.8A15.4,15.4,0,0,0,259.89,29h-1.5a15.71,15.71,0,0,0-.64-2l-1.14-2.78Zm4.12-7.86c-.08-.18-.16-.42-.48-1.36-.2.54-.34,1-.44,1.24,0,.06,0,.1,0,.12l-2.78,6.92h6.52Z"/><path class="cls-1" d="M279.34,26.21c.16.24.4.62,1.18,1.9-.06-1.5-.1-2.34-.1-2.48V16.27a10.71,10.71,0,0,0-.16-2.08h1.34a10.58,10.58,0,0,0-.16,2.08V27a10.08,10.08,0,0,0,.16,2.08h-1.68a10.7,10.7,0,0,0-1-1.64l-7-10.56c-.18-.28-.44-.7-1-1.6.06.74.08,1.56.08,2.18V27a10.45,10.45,0,0,0,.16,2.08h-1.34A10.71,10.71,0,0,0,270,27V16.27a10.85,10.85,0,0,0-.16-2.08h1.6a8.81,8.81,0,0,0,.94,1.64Z"/><path class="cls-1" d="M292.88,16.27a13.33,13.33,0,0,0-.16-2.14c.68,0,1.2.06,2,.06H298A6.61,6.61,0,0,1,302.8,16a7.61,7.61,0,0,1,1.92,5.54c0,4.64-2.58,7.54-6.72,7.54h-3.26c-.82,0-1.36,0-2,.06a13,13,0,0,0,.16-2.26ZM298,28.11c3.48,0,5.64-2.52,5.64-6.6s-2-6.38-5.52-6.38h-4.24v13Z"/><path class="cls-1" d="M335.21,27a10.45,10.45,0,0,0,.16,2.08H334A10.71,10.71,0,0,0,334.2,27V15.13h-3.34a11.82,11.82,0,0,0-2.08.14V14a11.52,11.52,0,0,0,2.08.14h7.72a9.82,9.82,0,0,0,2.08-.14v1.22a11.67,11.67,0,0,0-2.08-.14h-3.36Z"/><path class="cls-1" d="M352,14.19a10.58,10.58,0,0,0-.16,2.08V27A10.45,10.45,0,0,0,352,29h-1.34A10.71,10.71,0,0,0,350.8,27V16.27a10.85,10.85,0,0,0-.16-2.08Z"/><path class="cls-1" d="M370.2,29a7.31,7.31,0,0,0-.66-1.8l-4.76-10.3c-.16-.36-.4-1-.66-1.74.08.88.12,1.64.12,2.22V27A10.71,10.71,0,0,0,364.4,29h-1.34a11,11,0,0,0,.16-2.08V16.29a11.2,11.2,0,0,0-.16-2.1h1.66a8.46,8.46,0,0,0,.64,1.8l5.36,11.52L376.06,16a8.54,8.54,0,0,0,.66-1.8h1.64a11.07,11.07,0,0,0-.16,2.1V27a10.71,10.71,0,0,0,.16,2.08H377a13.71,13.71,0,0,0,.14-2.08V17.29a19.5,19.5,0,0,1,.12-2.08,9.22,9.22,0,0,1-.6,1.64l-4.82,10.4a10,10,0,0,0-.7,1.8Z"/><path class="cls-1" d="M399.28,29.19A11.66,11.66,0,0,0,397.2,29h-5.7c-.82,0-1.36,0-2,.06a13,13,0,0,0,.16-2.26V16.27a13.33,13.33,0,0,0-.16-2.14c.68,0,1.2.06,2,.06H397a13.77,13.77,0,0,0,2.08-.14v1.22a11.81,11.81,0,0,0-2.08-.14H390.7v5.6h5.44a13.78,13.78,0,0,0,2.08-.14v1.22a11.81,11.81,0,0,0-2.08-.14H390.7v6.44h6.5a13.77,13.77,0,0,0,2.08-.14Z"/><path class="cls-2" d="M149.42,16.27a13.33,13.33,0,0,0-.16-2.14c.68,0,1.2.06,2,.06h3.26a6.61,6.61,0,0,1,4.8,1.78,7.61,7.61,0,0,1,1.92,5.54c0,4.64-2.58,7.54-6.72,7.54h-3.26c-.82,0-1.36,0-2,.06a13,13,0,0,0,.16-2.26Zm5.14,11.84c3.48,0,5.64-2.52,5.64-6.6s-2-6.38-5.52-6.38h-4.24v13Z"/><path class="cls-2" d="M173.13,24.27,172,27a12.08,12.08,0,0,0-.64,2h-1.5a12.73,12.73,0,0,0,1.08-2.26L175.45,16a12,12,0,0,0,.64-1.8h1.32a12,12,0,0,0,.68,1.8l4.52,10.8A15.4,15.4,0,0,0,183.69,29h-1.5a15.71,15.71,0,0,0-.64-2l-1.14-2.78Zm4.12-7.86c-.08-.18-.16-.42-.48-1.36-.2.54-.34,1-.44,1.24,0,.06,0,.1,0,.12l-2.78,6.92H180Z"/><path class="cls-2" d="M196.81,27A10.45,10.45,0,0,0,197,29h-1.34a10.71,10.71,0,0,0,.16-2.08V15.13h-3.34a11.82,11.82,0,0,0-2.08.14V14a11.52,11.52,0,0,0,2.08.14h7.72a9.82,9.82,0,0,0,2.08-.14v1.22a11.67,11.67,0,0,0-2.08-.14h-3.36Z"/><path class="cls-2" d="M222,29.19A11.66,11.66,0,0,0,220,29h-5.7c-.82,0-1.36,0-2,.06a13,13,0,0,0,.16-2.26V16.27a13.33,13.33,0,0,0-.16-2.14c.68,0,1.2.06,2,.06h5.54a13.77,13.77,0,0,0,2.08-.14v1.22a11.81,11.81,0,0,0-2.08-.14h-6.34v5.6h5.44a13.77,13.77,0,0,0,2.08-.14v1.22a11.81,11.81,0,0,0-2.08-.14h-5.44v6.44H220A13.77,13.77,0,0,0,222,28Z"/><path class="cls-2" d="M249.33,24.27,248.19,27a12.08,12.08,0,0,0-.64,2H246a12.73,12.73,0,0,0,1.08-2.26L251.65,16a12,12,0,0,0,.64-1.8h1.32a12,12,0,0,0,.68,1.8l4.52,10.8A15.4,15.4,0,0,0,259.89,29h-1.5a15.71,15.71,0,0,0-.64-2l-1.14-2.78Zm4.12-7.86c-.08-.18-.16-.42-.48-1.36-.2.54-.34,1-.44,1.24,0,.06,0,.1,0,.12l-2.78,6.92h6.52Z"/><path class="cls-2" d="M279.34,26.21c.16.24.4.62,1.18,1.9-.06-1.5-.1-2.34-.1-2.48V16.27a10.71,10.71,0,0,0-.16-2.08h1.34a10.58,10.58,0,0,0-.16,2.08V27a10.08,10.08,0,0,0,.16,2.08h-1.68a10.7,10.7,0,0,0-1-1.64l-7-10.56c-.18-.28-.44-.7-1-1.6.06.74.08,1.56.08,2.18V27a10.45,10.45,0,0,0,.16,2.08h-1.34A10.71,10.71,0,0,0,270,27V16.27a10.85,10.85,0,0,0-.16-2.08h1.6a8.81,8.81,0,0,0,.94,1.64Z"/><path class="cls-2" d="M292.88,16.27a13.33,13.33,0,0,0-.16-2.14c.68,0,1.2.06,2,.06H298A6.61,6.61,0,0,1,302.8,16a7.61,7.61,0,0,1,1.92,5.54c0,4.64-2.58,7.54-6.72,7.54h-3.26c-.82,0-1.36,0-2,.06a13,13,0,0,0,.16-2.26ZM298,28.11c3.48,0,5.64-2.52,5.64-6.6s-2-6.38-5.52-6.38h-4.24v13Z"/><path class="cls-2" d="M335.21,27a10.45,10.45,0,0,0,.16,2.08H334A10.71,10.71,0,0,0,334.2,27V15.13h-3.34a11.82,11.82,0,0,0-2.08.14V14a11.52,11.52,0,0,0,2.08.14h7.72a9.82,9.82,0,0,0,2.08-.14v1.22a11.67,11.67,0,0,0-2.08-.14h-3.36Z"/><path class="cls-2" d="M352,14.19a10.58,10.58,0,0,0-.16,2.08V27A10.45,10.45,0,0,0,352,29h-1.34A10.71,10.71,0,0,0,350.8,27V16.27a10.85,10.85,0,0,0-.16-2.08Z"/><path class="cls-2" d="M370.2,29a7.31,7.31,0,0,0-.66-1.8l-4.76-10.3c-.16-.36-.4-1-.66-1.74.08.88.12,1.64.12,2.22V27A10.71,10.71,0,0,0,364.4,29h-1.34a11,11,0,0,0,.16-2.08V16.29a11.2,11.2,0,0,0-.16-2.1h1.66a8.46,8.46,0,0,0,.64,1.8l5.36,11.52L376.06,16a8.54,8.54,0,0,0,.66-1.8h1.64a11.07,11.07,0,0,0-.16,2.1V27a10.71,10.71,0,0,0,.16,2.08H377a13.71,13.71,0,0,0,.14-2.08V17.29a19.5,19.5,0,0,1,.12-2.08,9.22,9.22,0,0,1-.6,1.64l-4.82,10.4a10,10,0,0,0-.7,1.8Z"/><path class="cls-2" d="M399.28,29.19A11.66,11.66,0,0,0,397.2,29h-5.7c-.82,0-1.36,0-2,.06a13,13,0,0,0,.16-2.26V16.27a13.33,13.33,0,0,0-.16-2.14c.68,0,1.2.06,2,.06H397a13.77,13.77,0,0,0,2.08-.14v1.22a11.81,11.81,0,0,0-2.08-.14H390.7v5.6h5.44a13.78,13.78,0,0,0,2.08-.14v1.22a11.81,11.81,0,0,0-2.08-.14H390.7v6.44h6.5a13.77,13.77,0,0,0,2.08-.14Z"/><path class="cls-3" d="M556,44H0V0H556ZM2,42H554V2H2Z"/></g></g></svg>