<svg xmlns="http://www.w3.org/2000/svg" xmlns:xlink="http://www.w3.org/1999/xlink" viewBox="0 0 556 44"><defs><style>.cls-1{fill:#061927;}.cls-2{fill:url(#名称未設定グラデーション_133);}.cls-3{fill:url(#名称未設定グラデーション_133-11);}</style><linearGradient id="名称未設定グラデーション_133" x1="173.37" y1="22.48" x2="375.18" y2="22.48" gradientUnits="userSpaceOnUse"><stop offset="0" stop-color="#c0af84"/><stop offset="0.24" stop-color="#fffbd2"/><stop offset="0.44" stop-color="#c0af84"/><stop offset="0.76" stop-color="#95734e"/><stop offset="0.76" stop-color="#96744f"/><stop offset="0.78" stop-color="#a58a63"/><stop offset="0.81" stop-color="#b19b72"/><stop offset="0.84" stop-color="#baa67c"/><stop offset="0.88" stop-color="#bfad82"/><stop offset="1" stop-color="#c0af84"/></linearGradient><linearGradient id="名称未設定グラデーション_133-11" x1="0" y1="22" x2="556" y2="22" xlink:href="#名称未設定グラデーション_133"/></defs><title>アセット 97</title><g id="レイヤー_2" data-name="レイヤー 2"><g id="レイヤー_5" data-name="レイヤー 5"><path class="cls-1" d="M180.51,29.92a7.31,7.31,0,0,0-.66-1.8l-4.76-10.3c-.16-.36-.4-1-.66-1.74.08.88.12,1.64.12,2.22v9.54a10.71,10.71,0,0,0,.16,2.08h-1.34a11,11,0,0,0,.16-2.08V17.15a11.2,11.2,0,0,0-.16-2.1H175a8.46,8.46,0,0,0,.64,1.8L181,28.37l5.34-11.52a8.54,8.54,0,0,0,.66-1.8h1.64a11.07,11.07,0,0,0-.16,2.1V27.83a10.71,10.71,0,0,0,.16,2.08h-1.32a13.71,13.71,0,0,0,.14-2.08V18.15a19.5,19.5,0,0,1,.12-2.08,9.22,9.22,0,0,1-.6,1.64l-4.82,10.4a10,10,0,0,0-.7,1.8Z"/><path class="cls-1" d="M212.57,22.49c0,4.72-2.58,7.7-6.64,7.7s-6.64-3-6.64-7.7,2.6-7.72,6.64-7.72S212.57,17.77,212.57,22.49Zm-1.08-.06a7.2,7.2,0,0,0-1.84-5.24,5.12,5.12,0,0,0-3.72-1.48c-3.34,0-5.58,2.7-5.58,6.76s2.24,6.76,5.6,6.76S211.49,26.61,211.49,22.43Z"/><path class="cls-1" d="M227.34,27.47c.06.16.36,1,.48,1.36.18-.58.3-.94.46-1.36l4-10.42a11.55,11.55,0,0,0,.6-2h1.48a13.06,13.06,0,0,0-1,2.28L229,28.11a13,13,0,0,0-.62,1.8H227.2a14,14,0,0,0-.64-1.8l-4.28-10.78a15,15,0,0,0-1-2.28h1.48a11.08,11.08,0,0,0,.6,2Z"/><path class="cls-1" d="M245.66,15.05a10.58,10.58,0,0,0-.16,2.08v10.7a10.45,10.45,0,0,0,.16,2.08h-1.34a10.71,10.71,0,0,0,.16-2.08V17.13a10.85,10.85,0,0,0-.16-2.08Z"/><path class="cls-1" d="M266.54,30.06a11.66,11.66,0,0,0-2.08-.14h-5.7c-.82,0-1.36,0-2,.06a13,13,0,0,0,.16-2.26V17.13a13.33,13.33,0,0,0-.16-2.14c.68,0,1.2.06,2,.06h5.54a13.77,13.77,0,0,0,2.08-.14v1.22A11.81,11.81,0,0,0,264.3,16H258v5.6h5.44a13.77,13.77,0,0,0,2.08-.14v1.22a11.81,11.81,0,0,0-2.08-.14H258V29h6.5a13.77,13.77,0,0,0,2.08-.14Z"/><path class="cls-1" d="M297,27.83a10.45,10.45,0,0,0,.16,2.08h-1.34a10.71,10.71,0,0,0,.16-2.08V16h-3.34a11.82,11.82,0,0,0-2.08.14V14.91a11.52,11.52,0,0,0,2.08.14h7.72a9.82,9.82,0,0,0,2.08-.14v1.22a11.67,11.67,0,0,0-2.08-.14H297Z"/><path class="cls-1" d="M313.76,15.05a10.58,10.58,0,0,0-.16,2.08v10.7a10.45,10.45,0,0,0,.16,2.08h-1.34a10.71,10.71,0,0,0,.16-2.08V17.13a10.85,10.85,0,0,0-.16-2.08Z"/><path class="cls-1" d="M330.16,27.83a10.45,10.45,0,0,0,.16,2.08H329a10.71,10.71,0,0,0,.16-2.08V16H325.8a11.82,11.82,0,0,0-2.08.14V14.91a11.52,11.52,0,0,0,2.08.14h7.72a9.82,9.82,0,0,0,2.08-.14v1.22a11.67,11.67,0,0,0-2.08-.14h-3.36Z"/><path class="cls-1" d="M347.6,29.92c-.82,0-1.36,0-2,.06a13,13,0,0,0,.16-2.26V17.13a10.85,10.85,0,0,0-.16-2.08h1.34a10.85,10.85,0,0,0-.16,2.08V29h6.62a13.77,13.77,0,0,0,2.08-.14v1.22a11.66,11.66,0,0,0-2.08-.14Z"/><path class="cls-1" d="M375.18,30.06a11.66,11.66,0,0,0-2.08-.14h-5.7c-.82,0-1.36,0-2,.06a13,13,0,0,0,.16-2.26V17.13a13.33,13.33,0,0,0-.16-2.14c.68,0,1.2.06,2,.06h5.54a13.77,13.77,0,0,0,2.08-.14v1.22a11.81,11.81,0,0,0-2.08-.14h-6.34v5.6H372a13.77,13.77,0,0,0,2.08-.14v1.22a11.81,11.81,0,0,0-2.08-.14h-5.44V29h6.5a13.77,13.77,0,0,0,2.08-.14Z"/><path class="cls-2" d="M180.51,29.92a7.31,7.31,0,0,0-.66-1.8l-4.76-10.3c-.16-.36-.4-1-.66-1.74.08.88.12,1.64.12,2.22v9.54a10.71,10.71,0,0,0,.16,2.08h-1.34a11,11,0,0,0,.16-2.08V17.15a11.2,11.2,0,0,0-.16-2.1H175a8.46,8.46,0,0,0,.64,1.8L181,28.37l5.34-11.52a8.54,8.54,0,0,0,.66-1.8h1.64a11.07,11.07,0,0,0-.16,2.1V27.83a10.71,10.71,0,0,0,.16,2.08h-1.32a13.71,13.71,0,0,0,.14-2.08V18.15a19.5,19.5,0,0,1,.12-2.08,9.22,9.22,0,0,1-.6,1.64l-4.82,10.4a10,10,0,0,0-.7,1.8Z"/><path class="cls-2" d="M212.57,22.49c0,4.72-2.58,7.7-6.64,7.7s-6.64-3-6.64-7.7,2.6-7.72,6.64-7.72S212.57,17.77,212.57,22.49Zm-1.08-.06a7.2,7.2,0,0,0-1.84-5.24,5.12,5.12,0,0,0-3.72-1.48c-3.34,0-5.58,2.7-5.58,6.76s2.24,6.76,5.6,6.76S211.49,26.61,211.49,22.43Z"/><path class="cls-2" d="M227.34,27.47c.06.16.36,1,.48,1.36.18-.58.3-.94.46-1.36l4-10.42a11.55,11.55,0,0,0,.6-2h1.48a13.06,13.06,0,0,0-1,2.28L229,28.11a13,13,0,0,0-.62,1.8H227.2a14,14,0,0,0-.64-1.8l-4.28-10.78a15,15,0,0,0-1-2.28h1.48a11.08,11.08,0,0,0,.6,2Z"/><path class="cls-2" d="M245.66,15.05a10.58,10.58,0,0,0-.16,2.08v10.7a10.45,10.45,0,0,0,.16,2.08h-1.34a10.71,10.71,0,0,0,.16-2.08V17.13a10.85,10.85,0,0,0-.16-2.08Z"/><path class="cls-2" d="M266.54,30.06a11.66,11.66,0,0,0-2.08-.14h-5.7c-.82,0-1.36,0-2,.06a13,13,0,0,0,.16-2.26V17.13a13.33,13.33,0,0,0-.16-2.14c.68,0,1.2.06,2,.06h5.54a13.77,13.77,0,0,0,2.08-.14v1.22A11.81,11.81,0,0,0,264.3,16H258v5.6h5.44a13.77,13.77,0,0,0,2.08-.14v1.22a11.81,11.81,0,0,0-2.08-.14H258V29h6.5a13.77,13.77,0,0,0,2.08-.14Z"/><path class="cls-2" d="M297,27.83a10.45,10.45,0,0,0,.16,2.08h-1.34a10.71,10.71,0,0,0,.16-2.08V16h-3.34a11.82,11.82,0,0,0-2.08.14V14.91a11.52,11.52,0,0,0,2.08.14h7.72a9.82,9.82,0,0,0,2.08-.14v1.22a11.67,11.67,0,0,0-2.08-.14H297Z"/><path class="cls-2" d="M313.76,15.05a10.58,10.58,0,0,0-.16,2.08v10.7a10.45,10.45,0,0,0,.16,2.08h-1.34a10.71,10.71,0,0,0,.16-2.08V17.13a10.85,10.85,0,0,0-.16-2.08Z"/><path class="cls-2" d="M330.16,27.83a10.45,10.45,0,0,0,.16,2.08H329a10.71,10.71,0,0,0,.16-2.08V16H325.8a11.82,11.82,0,0,0-2.08.14V14.91a11.52,11.52,0,0,0,2.08.14h7.72a9.82,9.82,0,0,0,2.08-.14v1.22a11.67,11.67,0,0,0-2.08-.14h-3.36Z"/><path class="cls-2" d="M347.6,29.92c-.82,0-1.36,0-2,.06a13,13,0,0,0,.16-2.26V17.13a10.85,10.85,0,0,0-.16-2.08h1.34a10.85,10.85,0,0,0-.16,2.08V29h6.62a13.77,13.77,0,0,0,2.08-.14v1.22a11.66,11.66,0,0,0-2.08-.14Z"/><path class="cls-2" d="M375.18,30.06a11.66,11.66,0,0,0-2.08-.14h-5.7c-.82,0-1.36,0-2,.06a13,13,0,0,0,.16-2.26V17.13a13.33,13.33,0,0,0-.16-2.14c.68,0,1.2.06,2,.06h5.54a13.77,13.77,0,0,0,2.08-.14v1.22a11.81,11.81,0,0,0-2.08-.14h-6.34v5.6H372a13.77,13.77,0,0,0,2.08-.14v1.22a11.81,11.81,0,0,0-2.08-.14h-5.44V29h6.5a13.77,13.77,0,0,0,2.08-.14Z"/><path class="cls-3" d="M556,44H0V0H556ZM2,42H554V2H2Z"/></g></g></svg>